# xmcd
#
# Track frame offsets:
#	150
#	19655
#	41287
#	66090
#	87773
#	106589
#	131879
#	144162
#	172947
#	193897
#	211820
#
# Disc length: 3100 seconds
#
# Revision: 1
# Processed by: cddbd v1.5.1PL2 Copyright (c) Steve Scherf et al.
# Submitted via: audiograbber 1.81.02
#
DISCID=890c1a0b
DTITLE=Marcus Watta - Vision
DYEAR=2006
DGENRE=Pop
TTITLE0=Wozu lebe ich? (dazwischen)
TTITLE1=Ich atme nach vorn
TTITLE2=Ich hör' den Ruf
TTITLE3=Du bist, der Du bist
TTITLE4=In Deinem Haus
TTITLE5=Diener zu sein
TTITLE6=Das Grab ist leer
TTITLE7=Lied vom Kreuz
TTITLE8=Dein Lächeln
TTITLE9=Regen, der vom Himmel fällt (Shalom)
TTITLE10=Mehr von Dir
EXTD=www.gerth.de - ArtNo. 108021
EXTT0=
EXTT1=
EXTT2=
EXTT3=
EXTT4=
EXTT5=
EXTT6=
EXTT7=
EXTT8=
EXTT9=
EXTT10=
PLAYORDER=
